<?xml version="1.0" encoding="UTF-8" standalone="no"?>
<!DOCTYPE svg PUBLIC "-//W3C//DTD SVG 1.1//EN"
 "http://www.w3.org/Graphics/SVG/1.1/DTD/svg11.dtd">
<!-- Generated by graphviz version 2.47.0 (20210316.0004)
 -->
<!-- Title: dependencies Pages: 1 -->
<svg width="948pt" height="211pt"
 viewBox="0.00 0.00 948.00 211.00" xmlns="http://www.w3.org/2000/svg" xmlns:xlink="http://www.w3.org/1999/xlink">
<g id="graph0" class="graph" transform="scale(1 1) rotate(0) translate(4 207)">
<title>dependencies</title>
<polygon fill="white" stroke="transparent" points="-4,4 -4,-207 944,-207 944,4 -4,4"/>
<text text-anchor="start" x="449.01" y="-42.4" font-family="Times-12" font-weight="bold" font-size="14.00">Legend</text>
<polygon fill="#ffffb3" stroke="transparent" points="236,-10 236,-30 256,-30 256,-10 236,-10"/>
<text text-anchor="start" x="259.63" y="-15.4" font-family="Times-12" font-size="14.00"> &#160;Declarations</text>
<polygon fill="#8dd3c7" stroke="transparent" points="349,-10 349,-30 369,-30 369,-10 349,-10"/>
<text text-anchor="start" x="372.73" y="-15.4" font-family="Times-12" font-size="14.00"> &#160;Module</text>
<polygon fill="#80b1d3" stroke="transparent" points="435,-10 435,-30 455,-30 455,-10 435,-10"/>
<text text-anchor="start" x="458.78" y="-15.4" font-family="Times-12" font-size="14.00"> &#160;Bootstrap</text>
<polygon fill="#fdb462" stroke="transparent" points="532,-10 532,-30 552,-30 552,-10 532,-10"/>
<text text-anchor="start" x="555.67" y="-15.4" font-family="Times-12" font-size="14.00"> &#160;Providers</text>
<polygon fill="#fb8072" stroke="transparent" points="628,-10 628,-30 648,-30 648,-10 628,-10"/>
<text text-anchor="start" x="651.73" y="-15.4" font-family="Times-12" font-size="14.00"> &#160;Exports</text>
<g id="clust1" class="cluster">
<title>cluster_AppModule</title>
<polygon fill="none" stroke="black" stroke-dasharray="1,5" points="8,-70 8,-195 932,-195 932,-70 8,-70"/>
</g>
<g id="clust3" class="cluster">
<title>cluster_AppModule_imports</title>
<polygon fill="none" stroke="black" points="16,-78 16,-130 924,-130 924,-78 16,-78"/>
</g>
<!-- CatsModule -->
<g id="node1" class="node">
<title>CatsModule</title>
<polygon fill="#8dd3c7" stroke="black" points="916.44,-122 913.44,-126 892.44,-126 889.44,-122 831.56,-122 831.56,-86 916.44,-86 916.44,-122"/>
<text text-anchor="middle" x="874" y="-99.8" font-family="Times,serif" font-size="14.00">CatsModule</text>
</g>
<!-- AppModule -->
<g id="node9" class="node">
<title>AppModule</title>
<polygon fill="#8dd3c7" stroke="black" points="512.66,-187 509.66,-191 488.66,-191 485.66,-187 429.34,-187 429.34,-151 512.66,-151 512.66,-187"/>
<text text-anchor="middle" x="471" y="-164.8" font-family="Times,serif" font-size="14.00">AppModule</text>
</g>
<!-- CatsModule&#45;&gt;AppModule -->
<g id="edge1" class="edge">
<title>CatsModule&#45;&gt;AppModule</title>
<path fill="none" stroke="black" d="M874,-122.29C874,-144.21 874,-178 874,-178 874,-178 522.99,-178 522.99,-178"/>
<polygon fill="black" stroke="black" points="522.99,-174.5 512.99,-178 522.99,-181.5 522.99,-174.5"/>
</g>
<!-- CoreModule -->
<g id="node2" class="node">
<title>CoreModule</title>
<polygon fill="#8dd3c7" stroke="black" points="813.26,-122 810.26,-126 789.26,-126 786.26,-122 726.74,-122 726.74,-86 813.26,-86 813.26,-122"/>
<text text-anchor="middle" x="770" y="-99.8" font-family="Times,serif" font-size="14.00">CoreModule</text>
</g>
<!-- CoreModule&#45;&gt;AppModule -->
<g id="edge2" class="edge">
<title>CoreModule&#45;&gt;AppModule</title>
<path fill="none" stroke="black" d="M770,-122.11C770,-141.34 770,-169 770,-169 770,-169 522.89,-169 522.89,-169"/>
<polygon fill="black" stroke="black" points="522.89,-165.5 512.89,-169 522.89,-172.5 522.89,-165.5"/>
</g>
<!-- DatabaseModule -->
<g id="node3" class="node">
<title>DatabaseModule</title>
<polygon fill="#8dd3c7" stroke="black" points="708.35,-122 705.35,-126 684.35,-126 681.35,-122 597.65,-122 597.65,-86 708.35,-86 708.35,-122"/>
<text text-anchor="middle" x="653" y="-99.8" font-family="Times,serif" font-size="14.00">DatabaseModule</text>
</g>
<!-- DatabaseModule&#45;&gt;AppModule -->
<g id="edge3" class="edge">
<title>DatabaseModule&#45;&gt;AppModule</title>
<path fill="none" stroke="black" d="M653,-122.03C653,-138.4 653,-160 653,-160 653,-160 522.75,-160 522.75,-160"/>
<polygon fill="black" stroke="black" points="522.75,-156.5 512.75,-160 522.75,-163.5 522.75,-156.5"/>
</g>
<!-- EventsModule -->
<g id="node4" class="node">
<title>EventsModule</title>
<polygon fill="#8dd3c7" stroke="black" points="579.65,-122 576.65,-126 555.65,-126 552.65,-122 482.35,-122 482.35,-86 579.65,-86 579.65,-122"/>
<text text-anchor="middle" x="531" y="-99.8" font-family="Times,serif" font-size="14.00">EventsModule</text>
</g>
<!-- EventsModule&#45;&gt;AppModule -->
<g id="edge4" class="edge">
<title>EventsModule&#45;&gt;AppModule</title>
<path fill="none" stroke="black" d="M497.5,-122.11C497.5,-122.11 497.5,-140.99 497.5,-140.99"/>
<polygon fill="black" stroke="black" points="494,-140.99 497.5,-150.99 501,-140.99 494,-140.99"/>
</g>
<!-- RecipesModule -->
<g id="node5" class="node">
<title>RecipesModule</title>
<polygon fill="#8dd3c7" stroke="black" points="463.87,-122 460.87,-126 439.87,-126 436.87,-122 360.13,-122 360.13,-86 463.87,-86 463.87,-122"/>
<text text-anchor="middle" x="412" y="-99.8" font-family="Times,serif" font-size="14.00">RecipesModule</text>
</g>
<!-- RecipesModule&#45;&gt;AppModule -->
<g id="edge5" class="edge">
<title>RecipesModule&#45;&gt;AppModule</title>
<path fill="none" stroke="black" d="M446.55,-122.11C446.55,-122.11 446.55,-140.99 446.55,-140.99"/>
<polygon fill="black" stroke="black" points="443.05,-140.99 446.55,-150.99 450.05,-140.99 443.05,-140.99"/>
</g>
<!-- RedisModule -->
<g id="node6" class="node">
<title>RedisModule</title>
<polygon fill="#8dd3c7" stroke="black" points="341.94,-122 338.94,-126 317.94,-126 314.94,-122 250.06,-122 250.06,-86 341.94,-86 341.94,-122"/>
<text text-anchor="middle" x="296" y="-99.8" font-family="Times,serif" font-size="14.00">RedisModule</text>
</g>
<!-- RedisModule&#45;&gt;AppModule -->
<g id="edge6" class="edge">
<title>RedisModule&#45;&gt;AppModule</title>
<path fill="none" stroke="black" d="M296,-122.03C296,-138.4 296,-160 296,-160 296,-160 419.08,-160 419.08,-160"/>
<polygon fill="black" stroke="black" points="419.08,-163.5 429.08,-160 419.08,-156.5 419.08,-163.5"/>
</g>
<!-- SharedModule -->
<g id="node7" class="node">
<title>SharedModule</title>
<polygon fill="#8dd3c7" stroke="black" points="232.42,-122 229.42,-126 208.42,-126 205.42,-122 133.58,-122 133.58,-86 232.42,-86 232.42,-122"/>
<text text-anchor="middle" x="183" y="-99.8" font-family="Times,serif" font-size="14.00">SharedModule</text>
</g>
<!-- SharedModule&#45;&gt;AppModule -->
<g id="edge7" class="edge">
<title>SharedModule&#45;&gt;AppModule</title>
<path fill="none" stroke="black" d="M183,-122.11C183,-141.34 183,-169 183,-169 183,-169 419.12,-169 419.12,-169"/>
<polygon fill="black" stroke="black" points="419.12,-172.5 429.12,-169 419.12,-165.5 419.12,-172.5"/>
</g>
<!-- TasksModule -->
<g id="node8" class="node">
<title>TasksModule</title>
<polygon fill="#8dd3c7" stroke="black" points="116.21,-122 113.21,-126 92.21,-126 89.21,-122 23.79,-122 23.79,-86 116.21,-86 116.21,-122"/>
<text text-anchor="middle" x="70" y="-99.8" font-family="Times,serif" font-size="14.00">TasksModule</text>
</g>
<!-- TasksModule&#45;&gt;AppModule -->
<g id="edge8" class="edge">
<title>TasksModule&#45;&gt;AppModule</title>
<path fill="none" stroke="black" d="M70,-122.29C70,-144.21 70,-178 70,-178 70,-178 419.22,-178 419.22,-178"/>
<polygon fill="black" stroke="black" points="419.22,-181.5 429.22,-178 419.22,-174.5 419.22,-181.5"/>
</g>
</g>
</svg>
